HIERARCHY
ROOT Pelvis
{
	OFFSET 0.000000 0.000000 0.000000
	CHANNELS 6 Xposition Yposition Zposition Xrotation Yrotation Zrotation
	JOINT LeftUpLeg_virtual
	{
		OFFSET 0.000000 0.000000 0.000000
		CHANNELS 3 Xrotation Yrotation Zrotation
		JOINT LeftUpLeg
		{
			OFFSET 18.735201 -5.666702 -4.541200
			CHANNELS 3 Xrotation Yrotation Zrotation
			JOINT LeftLeg
			{
				OFFSET -0.021200 -31.938179 0.493100
				CHANNELS 3 Xrotation Yrotation Zrotation
				JOINT LeftFoot
				{
					OFFSET 0.021200 -31.938179 -4.336299
					CHANNELS 3 Xrotation Yrotation Zrotation
					JOINT LeftToeBase
					{
						OFFSET 0.943001 -26.722000 15.023500
						CHANNELS 3 Xrotation Yrotation Zrotation
						End Site
						{
							OFFSET 0 0 0
						}
					}
				}
			}
		}
	}
	JOINT RightUpLeg_virtual
	{
		OFFSET 0.000000 0.000000 0.000000
		CHANNELS 3 Xrotation Yrotation Zrotation
		JOINT RightUpLeg
		{
			OFFSET -18.735201 -5.666702 -4.541200
			CHANNELS 3 Xrotation Yrotation Zrotation
			JOINT RightLeg
			{
				OFFSET 0.018946 -31.938133 0.493100
				CHANNELS 3 Xrotation Yrotation Zrotation
				JOINT RightFoot
				{
					OFFSET -0.018946 -31.938126 -4.336299
					CHANNELS 3 Xrotation Yrotation Zrotation
					JOINT RightToeBase
					{
						OFFSET -0.943001 -26.722004 15.023500
						CHANNELS 3 Xrotation Yrotation Zrotation
						End Site
						{
							OFFSET 0 0 0
						}
					}
				}
			}
		}
	}
	JOINT Hips_virtual
	{
		OFFSET 0.000000 0.000000 0.000000
		CHANNELS 3 Xrotation Yrotation Zrotation
		JOINT Hips
		{
			OFFSET -0.000000 -0.000000 -0.000000
			CHANNELS 3 Xrotation Yrotation Zrotation
			JOINT Spine
			{
				OFFSET 0.000000 10.199997 -0.299500
				CHANNELS 3 Xrotation Yrotation Zrotation
				JOINT Spine1
				{
					OFFSET 0.000000 11.900002 -1.516600
					CHANNELS 3 Xrotation Yrotation Zrotation
					JOINT Spine2
					{
						OFFSET 0.000000 13.600006 -2.842500
						CHANNELS 3 Xrotation Yrotation Zrotation
						JOINT Neck_virtual
						{
							OFFSET 0.000000 0.000000 0.000000
							CHANNELS 3 Xrotation Yrotation Zrotation
							JOINT Neck
							{
								OFFSET 0.000000 9.624100 -2.890100
								CHANNELS 3 Xrotation Yrotation Zrotation
								JOINT Head
								{
									OFFSET 0.000000 14.068802 -1.351900
									CHANNELS 3 Xrotation Yrotation Zrotation
									End Site
									{
										OFFSET 0 0 0
									}
								}
							}
						}
						JOINT LeftShoulder_virtual
						{
							OFFSET 0.000000 0.000000 0.000000
							CHANNELS 3 Xrotation Yrotation Zrotation
							JOINT LeftShoulder
							{
								OFFSET 15.263000 10.923401 -0.547700
								CHANNELS 3 Xrotation Yrotation Zrotation
								JOINT LeftArm
								{
									OFFSET 25.438599 -2.830597 -13.032500
									CHANNELS 3 Xrotation Yrotation Zrotation
									JOINT LeftForeArm
									{
										OFFSET 29.960503 0.000000 0.000000
										CHANNELS 3 Xrotation Yrotation Zrotation
										JOINT LeftHand
										{
											OFFSET 27.849251 0.000000 0.000000
											CHANNELS 3 Xrotation Yrotation Zrotation
											End Site
											{
												OFFSET 0 0 0
											}
										}
									}
								}
							}
						}
						JOINT RightShoulder_virtual
						{
							OFFSET 0.000000 0.000000 0.000000
							CHANNELS 3 Xrotation Yrotation Zrotation
							JOINT RightShoulder
							{
								OFFSET -15.263000 10.923401 -0.547700
								CHANNELS 3 Xrotation Yrotation Zrotation
								JOINT RightArm
								{
									OFFSET -25.438599 -2.830597 -13.032500
									CHANNELS 3 Xrotation Yrotation Zrotation
									JOINT RightForeArm
									{
										OFFSET -29.960503 0.000000 0.000000
										CHANNELS 3 Xrotation Yrotation Zrotation
										JOINT RightHand
										{
											OFFSET -27.849251 0.000000 0.000000
											CHANNELS 3 Xrotation Yrotation Zrotation
											End Site
											{
												OFFSET 0 0 0
											}
										}
									}
								}
							}
						}
					}
				}
			}
		}
	}
}
MOTION
Frames: 11
Frame Time: 0.03333333
-23.015858 78.858658 -7.692036 0.000000 0.000000 0.000000 35.987030 4.132629 -4.023783 -60.664251 -24.120955 28.703279 36.186568 7.634615 -3.633501 3.040659 8.287435 -32.525648 0.000000 0.000000 0.000000 35.987030 4.132629 -4.023783 -66.919639 2.958710 -22.206547 56.836873 -3.580571 -0.676618 -19.620808 -5.866719 23.354806 0.000000 0.000000 0.000000 35.987030 4.132629 -4.023783 0.000002 0.000000 0.000000 11.163861 2.019195 0.891280 9.606817 1.909023 0.899772 0.000000 0.000000 0.000000 9.603348 2.011869 0.811203 0.129797 -0.854768 -0.412965 0.000000 0.000000 0.000000 9.603348 2.011869 0.811203 1.414462 -22.723536 -8.784364 11.762079 -10.125568 -53.585375 0.000026 -69.152237 -0.000008 0.000000 0.000000 0.000000 9.603348 2.011869 0.811203 3.076672 26.719377 7.630342 -0.858346 44.777897 17.984942 0.000003 15.067925 0.000007 0.000000 0.000000 0.000000 
-22.615953 78.318130 -7.819344 0.000000 0.000000 0.000000 37.451150 4.014421 -3.922267 -64.099304 -23.325928 28.289448 38.402879 7.691553 -3.740297 2.231032 6.966760 -32.025678 0.000000 0.000000 0.000000 37.451150 4.014421 -3.922267 -68.977534 3.432682 -22.623832 57.573249 -3.284610 -0.987478 -19.649194 -6.001136 23.879069 0.000000 0.000000 0.000000 37.451150 4.014421 -3.922267 -0.000002 0.000000 0.000000 11.353368 2.156179 0.899732 9.817436 2.025247 0.983092 0.000000 0.000000 0.000000 9.811144 2.152150 0.886992 0.056618 -0.898969 -0.484058 0.000000 0.000000 0.000000 9.811144 2.152150 0.886992 1.416203 -22.973077 -8.880211 11.192768 -9.120341 -53.018770 0.000009 -70.505843 -0.000018 0.000000 0.000000 0.000000 9.811144 2.152150 0.886992 3.187581 27.214293 7.729331 -2.835466 44.048419 16.782885 0.000001 15.523328 -0.000004 0.000000 0.000000 0.000000 
-22.197609 77.818520 -7.897572 0.000000 0.000000 0.000000 39.059663 4.129767 -3.707553 -67.528544 -22.381345 27.728579 40.002669 7.755122 -3.872521 1.830078 5.441438 -31.426216 0.000000 0.000000 0.000000 39.059663 4.129767 -3.707553 -71.066800 3.923284 -23.399579 58.335450 -2.901401 -1.198174 -19.778467 -6.144997 24.362506 0.000000 0.000000 0.000000 39.059663 4.129767 -3.707553 -0.000004 0.000000 0.000000 11.442868 2.272100 0.886484 9.969258 2.124028 1.135354 0.000000 0.000000 0.000000 9.956450 2.298936 1.031304 0.014117 -0.967779 -0.523843 0.000000 0.000000 0.000000 9.956450 2.298936 1.031304 1.450523 -23.720940 -8.828588 11.826657 -9.065752 -52.805596 0.000036 -71.719889 0.000023 0.000000 0.000000 0.000000 9.956450 2.298936 1.031304 3.294673 27.536637 7.886915 -5.270288 43.242898 15.996358 -0.000000 15.853533 0.000007 0.000000 0.000000 0.000000 
-21.733841 77.299431 -7.951580 0.000000 0.000000 0.000000 40.689066 4.372059 -3.469048 -71.048905 -21.179512 27.035673 41.566421 7.847677 -3.873221 1.382929 3.825950 -30.751342 0.000000 0.000000 0.000000 40.689066 4.372059 -3.469048 -73.144250 4.409971 -24.390177 59.171896 -2.422686 -1.377479 -19.988265 -6.312322 24.855279 0.000000 0.000000 0.000000 40.689066 4.372059 -3.469048 -0.000001 0.000000 0.000000 11.488335 2.337478 0.897936 10.064952 2.170637 1.237803 0.000000 0.000000 0.000000 10.048252 2.372606 1.130299 -0.002118 -1.011950 -0.591437 0.000000 0.000000 0.000000 10.048252 2.372606 1.130299 1.473614 -24.423869 -8.886955 12.773716 -9.396232 -52.694162 0.000024 -72.757477 0.000001 0.000000 0.000000 0.000000 10.048252 2.372606 1.130299 3.339809 27.785957 7.894900 -7.494338 42.669025 15.410829 -0.000010 16.135772 -0.000004 0.000000 0.000000 0.000000 
-21.198307 76.768898 -8.000465 0.000000 0.000000 0.000000 42.344495 4.786457 -3.118776 -74.642520 -19.632127 26.056613 42.977664 7.982908 -3.610949 0.986329 2.127065 -30.053116 0.000000 0.000000 0.000000 42.344495 4.786457 -3.118776 -75.177310 5.163995 -25.705277 60.115930 -1.912686 -1.380908 -20.247642 -6.504766 25.383283 0.000000 0.000000 0.000000 42.344495 4.786457 -3.118776 0.000000 0.000000 0.000000 11.542961 2.397809 0.916867 10.145548 2.207578 1.318638 0.000000 0.000000 0.000000 10.126049 2.429381 1.208036 -0.048107 -1.072702 -0.675531 0.000000 0.000000 0.000000 10.126049 2.429381 1.208036 1.497498 -25.154974 -8.949472 13.817577 -10.051096 -52.570409 -0.000003 -73.607023 0.000005 0.000000 0.000000 0.000000 10.126049 2.429381 1.208036 3.280516 27.664711 7.784449 -9.619640 42.447891 14.900326 0.000002 16.326073 -0.000002 0.000000 0.000000 0.000000 
-20.637785 76.208839 -8.040321 0.000000 0.000000 0.000000 43.911221 5.262627 -2.742639 -78.032411 -18.240444 24.935535 44.454402 7.206962 -3.309413 0.534249 1.616687 -29.414032 0.000000 0.000000 0.000000 43.911221 5.262627 -2.742639 -76.851301 6.544197 -27.307224 61.178845 -1.477069 -0.609397 -20.578387 -6.687801 25.779593 0.000000 0.000000 0.000000 43.911221 5.262627 -2.742639 -0.000001 0.000000 0.000000 11.608378 2.445403 0.876482 10.265076 2.231857 1.358038 0.000000 0.000000 0.000000 10.241836 2.476433 1.245285 -0.114301 -1.140549 -0.684037 0.000000 0.000000 0.000000 10.241836 2.476433 1.245285 1.557782 -25.527306 -8.496165 14.623314 -11.130545 -52.931702 0.000060 -74.277542 0.000063 0.000000 0.000000 0.000000 10.241836 2.476433 1.245285 3.249557 27.489648 7.779118 -11.398790 42.415673 13.945879 0.000000 16.488743 -0.000015 0.000000 0.000000 0.000000 
-20.168749 75.607033 -8.040367 0.000000 0.000000 0.000000 45.347392 5.553716 -2.404136 -80.364013 -18.606842 24.337473 46.258272 7.128011 -4.202387 -0.099067 1.759615 -28.979594 0.000000 0.000000 0.000000 45.347392 5.553716 -2.404136 -78.581545 7.655606 -28.582851 62.288429 -0.911013 -0.148894 -20.950331 -6.873546 26.123474 0.000000 0.000000 0.000000 45.347392 5.553716 -2.404136 0.000000 0.000000 0.000000 11.719777 2.494800 0.717999 10.419606 2.265464 1.337531 0.000000 0.000000 0.000000 10.390041 2.546631 1.219551 -0.243876 -1.200880 -0.716706 0.000000 0.000000 0.000000 10.390041 2.546631 1.219551 1.615767 -25.353608 -7.828263 14.967031 -11.945083 -53.301119 0.000041 -74.787757 0.000044 0.000000 0.000000 0.000000 10.390041 2.546631 1.219551 3.298614 27.605140 7.865046 -13.087429 42.442297 12.745400 -0.000009 16.666201 0.000016 0.000000 0.000000 0.000000 
-19.723015 74.917610 -8.015335 0.000000 0.000000 0.000000 46.728715 5.905665 -2.039909 -82.632674 -18.994672 23.717743 48.142199 6.993989 -5.079617 -0.929726 1.955135 -28.632409 0.000000 0.000000 0.000000 46.728715 5.905665 -2.039909 -80.458044 8.647994 -29.686345 63.672048 -0.359186 -0.245285 -21.459971 -7.155177 26.685821 0.000000 0.000000 0.000000 46.728715 5.905665 -2.039909 -0.000002 0.000000 0.000000 11.812524 2.600270 0.553322 10.594687 2.359890 1.233384 0.000000 0.000000 0.000000 10.561078 2.654505 1.112512 -0.368326 -1.283789 -0.701330 0.000000 0.000000 0.000000 10.561078 2.654505 1.112512 1.656399 -25.291419 -7.383002 15.650960 -12.698433 -53.329270 0.000001 -75.154627 -0.000005 0.000000 0.000000 0.000000 10.561078 2.654505 1.112512 3.287745 27.410495 7.928245 -14.243998 42.696308 11.323491 -0.000008 16.900694 -0.000003 0.000000 0.000000 0.000000 
-19.274002 74.171837 -7.934464 0.000000 0.000000 0.000000 47.967247 6.372102 -1.672160 -84.946646 -18.951890 23.054890 50.077096 6.491719 -5.770974 -1.948218 2.191480 -28.213502 0.000000 0.000000 0.000000 47.967247 6.372102 -1.672160 -82.197194 9.644223 -30.810782 65.271815 0.189686 -0.540509 -22.140912 -7.517211 27.363355 0.000000 0.000000 0.000000 47.967247 6.372102 -1.672160 -0.000003 -0.000000 0.000001 11.926648 2.686290 0.397043 10.795023 2.436691 1.061353 0.000000 0.000000 0.000000 10.760790 2.723267 0.941220 -0.506137 -1.350473 -0.684610 0.000000 0.000000 0.000000 10.760790 2.723267 0.941220 1.700070 -25.094738 -6.831343 16.047316 -13.664761 -53.668635 -0.000021 -75.388814 -0.000010 0.000000 0.000000 0.000000 10.760790 2.723267 0.941220 3.258680 27.386381 7.855297 -15.066795 42.716061 9.793282 0.000010 17.097154 0.000015 0.000000 0.000000 0.000000 
-18.795631 73.370193 -7.771530 0.000000 0.000000 0.000000 49.053848 6.908580 -1.198374 -87.405589 -18.147860 22.255357 52.131754 5.500122 -5.923415 -3.134700 2.461078 -27.787253 0.000000 0.000000 0.000000 49.053848 6.908580 -1.198374 -83.532735 11.173645 -32.115218 67.057677 0.696458 -0.451470 -22.984182 -7.939561 28.066922 0.000000 0.000000 0.000000 49.053848 6.908580 -1.198374 -0.000002 0.000000 0.000000 12.062733 2.744043 0.294983 11.047808 2.482336 0.999458 0.000000 0.000000 0.000000 11.010723 2.780277 0.880109 -0.670117 -1.414957 -0.723299 0.000000 0.000000 0.000000 11.010723 2.780277 0.880109 1.723829 -25.231014 -6.660589 16.458761 -14.055774 -53.696680 -0.000034 -75.500091 -0.000030 0.000000 0.000000 0.000000 11.010723 2.780277 0.880109 3.176197 27.272973 7.668176 -15.593334 42.844851 8.229525 -0.000002 17.335705 -0.000022 0.000000 0.000000 0.000000 
-18.361372 72.540314 -7.574982 0.000000 0.000000 0.000000 50.084459 7.530589 -0.831654 -89.799133 -17.340225 21.533857 54.099244 4.406498 -6.025311 -4.259636 2.711030 -27.375963 0.000000 0.000000 0.000000 50.084459 7.530589 -0.831654 -84.927911 12.282232 -33.130601 68.953895 1.072259 -1.075903 -23.943206 -8.474077 28.986100 0.000000 0.000000 0.000000 50.084459 7.530589 -0.831654 -0.000001 0.000000 -0.000001 12.194687 2.873319 0.204966 11.358266 2.601990 0.991495 0.000000 0.000000 0.000000 11.314922 2.925647 0.871748 -0.854416 -1.500474 -0.742866 0.000000 0.000000 0.000000 11.314922 2.925647 0.871748 1.775715 -25.335047 -6.187622 16.636066 -14.716454 -53.846438 0.000008 -75.508868 -0.000005 0.000000 0.000000 0.000000 11.314922 2.925647 0.871748 3.167532 27.281652 7.638712 -15.931010 42.588442 6.111242 -0.000007 17.599203 -0.000017 0.000000 0.000000 0.000000 
